<svg xmlns="http://www.w3.org/2000/svg" width="19.96" height="19.959" viewBox="0 0 19.96 19.959">
  <path id="cancel3" d="M19.587,16l6.1,6.1a1.015,1.015,0,0,1,0,1.435l-2.151,2.151a1.015,1.015,0,0,1-1.435,0l-6.1-6.1-6.1,6.1a1.014,1.014,0,0,1-1.434,0L6.317,23.532a1.015,1.015,0,0,1,0-1.435l6.1-6.1-6.1-6.1a1.015,1.015,0,0,1,0-1.435L8.47,6.318a1.014,1.014,0,0,1,1.434,0l6.1,6.1,6.1-6.1a1.015,1.015,0,0,1,1.435,0L25.683,8.47a1.015,1.015,0,0,1,0,1.435l-6.1,6.1Z" transform="translate(-6.02 -6.021)" fill="#76706b"/>
</svg>
