<svg xmlns="http://www.w3.org/2000/svg" width="32.001" height="29.333" viewBox="0 0 32.001 29.333">
  <path id="users2" d="M31.451,26.613c-1.945-4.479-6.455-7.08-9.728-8.192,2.005-1.639,3.189-4.729,3.189-8.777,0-5.38-4.5-6.8-6.876-6.8a7.365,7.365,0,0,0-1.287.127,6.645,6.645,0,0,0-4.311-1.635A5.981,5.981,0,0,0,6.255,7.449c0,3.571,1.043,6.305,2.812,7.777a12.316,12.316,0,0,0-8.519,7L0,23.49,1.283,24a30.532,30.532,0,0,0,4.083,1.185,13.212,13.212,0,0,0-.748,1.431l-.551,1.265,1.284.507a38.191,38.191,0,0,0,12.683,2.281,38.2,38.2,0,0,0,12.683-2.281L32,27.878ZM22.245,9.645c0,4.575-1.613,7.416-4.209,7.416s-4.209-2.841-4.209-7.416a3.975,3.975,0,0,1,4.2-4.136,3.978,3.978,0,0,1,4.216,4.136ZM12.439,4a4.536,4.536,0,0,1,1.277.22A6.294,6.294,0,0,0,11.16,9.645a16.823,16.823,0,0,0,.451,3.995c-1.963-.625-2.688-3.487-2.688-6.191A3.323,3.323,0,0,1,12.439,4Zm0,13.4a9.6,9.6,0,0,1,.968.083,6.077,6.077,0,0,0,2.036,1.652,14.806,14.806,0,0,0-7.512,3.82,33.977,33.977,0,0,1-4.247-.96c2.863-4.507,8.5-4.593,8.755-4.595Zm5.6,10.6A40.171,40.171,0,0,1,7.274,26.381a10.256,10.256,0,0,1,1.661-2.543,14.654,14.654,0,0,1,9.1-3.683,14.248,14.248,0,0,1,2.34.288,14.49,14.49,0,0,1,7.965,5.935A36.219,36.219,0,0,1,18.035,28Z" transform="translate(0.001 -1.333)" fill="#7a8fa6"/>
</svg>
