<svg xmlns="http://www.w3.org/2000/svg" width="45.762" height="46.204" viewBox="0 0 45.762 46.204">
  <path id="google-with-circle" d="M23.521.64A23.1,23.1,0,1,0,46.4,23.742,22.993,22.993,0,0,0,23.521.64ZM22.2,33.66a8.526,8.526,0,0,1-3.583.779h-.307c-.934,0-5.585-.217-5.585-4.493,0-4.2,5.065-4.532,6.617-4.532h.04a3.509,3.509,0,0,1-.711-2.426c-.079,0-.194.009-.334.009a5.029,5.029,0,0,1-2.678-.725,4.305,4.305,0,0,1-1.788-3.9c0-5.129,5.546-5.335,5.6-5.339h5.539v.123c0,.626-1.113.749-1.871.851a5.261,5.261,0,0,0-.921.164c1.4.758,1.63,1.946,1.63,3.718a4.719,4.719,0,0,1-1.612,3.831c-.515.465-.918.827-.918,1.316s.553.967,1.2,1.537c1.052.936,2.494,2.209,2.494,4.359A4.851,4.851,0,0,1,22.2,33.658Zm12.044-9.918H30.671v3.61H28.288v-3.61H24.713V21.336h3.575v-3.61h2.383v3.61h3.575ZM19.286,26.51c-.124,0-.247,0-.374.015a4.552,4.552,0,0,0-2.741,1.128,2.847,2.847,0,0,0-1.008,2.265c.107,1.712,1.926,2.712,4.135,2.554,2.173-.159,3.623-1.424,3.519-3.136-.1-1.608-1.485-2.825-3.53-2.825Zm2.083-9.3c-.576-2.046-1.506-2.652-2.951-2.652a1.774,1.774,0,0,0-.462.065,2.2,2.2,0,0,0-1.4,1.492A4.232,4.232,0,0,0,16.5,18.68c.441,1.688,1.628,2.909,2.824,2.909a1.58,1.58,0,0,0,.462-.065C21.091,21.154,21.912,19.137,21.369,17.209Z" transform="translate(-0.64 -0.64)" fill="#e5e2e7"/>
</svg>
