<svg xmlns="http://www.w3.org/2000/svg" width="30" height="29" viewBox="0 0 30 29">
  <path id="sale" d="M28,31H4a3,3,0,0,1-3-3V14a3,3,0,0,1,3-3H6l8.493-6.518A2,2,0,1,1,18.428,4a1.974,1.974,0,0,1-.269.984L26,11h2a3,3,0,0,1,3,3V28a3,3,0,0,1-3,3ZM17.071,24.583H21.1v-.758h-3.18V18.137H17.07v6.446Zm-5.768,0,.706-1.953h2.708l.742,1.953h.972L13.8,18.138h-.924L10.4,24.583ZM5.342,18.894a1.651,1.651,0,0,0-.276.914,1.476,1.476,0,0,0,.226.8,1.756,1.756,0,0,0,.687.6,5.8,5.8,0,0,0,1.239.4,11.46,11.46,0,0,1,1.144.314,1.331,1.331,0,0,1,.581.38.827.827,0,0,1,.179.528.931.931,0,0,1-.182.552,1.189,1.189,0,0,1-.555.4,2.324,2.324,0,0,1-.858.146,2.411,2.411,0,0,1-.985-.192,1.428,1.428,0,0,1-.646-.5,1.809,1.809,0,0,1-.266-.8l-.8.07a2.173,2.173,0,0,0,.354,1.157,2.056,2.056,0,0,0,.925.768,3.7,3.7,0,0,0,1.463.255,2.927,2.927,0,0,0,1.238-.253,1.924,1.924,0,0,0,.844-.706,1.752,1.752,0,0,0,.294-.968,1.593,1.593,0,0,0-.269-.914,1.947,1.947,0,0,0-.832-.656,8.534,8.534,0,0,0-1.423-.41,3.354,3.354,0,0,1-1.281-.461.728.728,0,0,1-.25-.57.851.851,0,0,1,.353-.684,1.789,1.789,0,0,1,1.123-.284,1.736,1.736,0,0,1,1.119.31,1.31,1.31,0,0,1,.444.917l.82-.062a1.957,1.957,0,0,0-.315-1.014,1.82,1.82,0,0,0-.84-.678,3.213,3.213,0,0,0-1.261-.23,3.048,3.048,0,0,0-1.18.22,1.7,1.7,0,0,0-.809.644ZM17.678,5.55a1.974,1.974,0,0,1-2.857-.371L7,11H25Zm9.258,18.275H22.983V21.63h3.562v-.758H22.983V18.9h3.805v-.758H22.132v6.445h4.805v-.757ZM13.314,18.81q.156.53.457,1.343l.679,1.782h-2.2l.715-1.887a8.808,8.808,0,0,0,.348-1.238Z" transform="translate(-1 -2)" fill="#76706b"/>
</svg>
