<svg xmlns="http://www.w3.org/2000/svg" width="32.001" height="30.402" viewBox="0 0 32.001 30.402">
  <path id="images" d="M27.4,9.872,24.126.856A1.248,1.248,0,0,0,22.544.069L.787,8.01A1.252,1.252,0,0,0,.081,9.631l3.45,9.506V14.044a4.138,4.138,0,0,1,4.1-4.171h5.749L20.232,5.06,24.2,9.873h3.2ZM30.781,12.8H7.627a1.218,1.218,0,0,0-1.219,1.243V29.115A1.257,1.257,0,0,0,7.627,30.4H30.781A1.253,1.253,0,0,0,32,29.115V14.043A1.218,1.218,0,0,0,30.781,12.8ZM28.8,27.2H9.6V24l3.174-6.429,4.429,5.5L21.36,18.81,26.7,16.882,28.8,22.4Z" transform="translate(0.001 0.002)" fill="#63c9ef"/>
</svg>
