<svg xmlns="http://www.w3.org/2000/svg" width="32" height="22.4" viewBox="0 0 32 22.4">
  <path id="v-card" d="M30.4,4.8H1.6A1.6,1.6,0,0,0,0,6.4V25.6a1.6,1.6,0,0,0,1.6,1.6H30.4A1.6,1.6,0,0,0,32,25.6V6.4a1.6,1.6,0,0,0-1.6-1.6Zm-9.6,6.4h6.4v1.6H20.8ZM17.6,23.685a3.7,3.7,0,0,0-.846-.485c-1.888-.813-4.738-2.016-4.738-3.482,0-.882.574-.594.829-2.206.106-.669.616-.011.712-1.538,0-.608-.278-.76-.278-.76s.141-.9.2-1.594c.058-.725-.354-2.88-2.043-3.355-.3-.3-.5-.178.413-.659-1.99-.094-2.454.947-3.514,1.714a2.785,2.785,0,0,0-1.1,2.3c.059.693.2,1.594.2,1.594s-.28.15-.28.758c.1,1.526.608.869.712,1.538.253,1.613.83,1.325.83,2.206,0,1.466-2.85,2.669-4.738,3.482a4.053,4.053,0,0,0-.754.416V8H17.6V23.685ZM28.8,17.6h-8V16h8Z" transform="translate(0 -4.8)" fill="#63c9ef"/>
</svg>
