<svg xmlns="http://www.w3.org/2000/svg" width="38.455" height="30.402" viewBox="0 0 38.455 30.402">
  <path id="coins" d="M39.531,31.842H22.089a12.448,12.448,0,0,0,1.162-3.04H39.531a1.523,1.523,0,0,1,0,3.04Zm0-4.56h-16a11.806,11.806,0,0,0,0-3.04h16a1.523,1.523,0,0,1,0,3.04Zm0-4.56H23.251a12.506,12.506,0,0,0-1.162-3.04H39.531a1.523,1.523,0,0,1,0,3.04Zm0-4.56H21.118a11.631,11.631,0,0,0-3.374-3.04H39.531a1.523,1.523,0,0,1,0,3.04Zm0-4.56H16.743a1.523,1.523,0,0,1,0-3.04H39.531a1.523,1.523,0,0,1,0,3.04Zm0-4.56H16.743a1.474,1.474,0,0,1-1.424-1.52A1.473,1.473,0,0,1,16.743,6H39.531a1.473,1.473,0,0,1,1.424,1.52A1.474,1.474,0,0,1,39.531,9.04ZM22.44,25.761c0,5.877-4.465,10.641-9.97,10.641S2.5,31.638,2.5,25.761s4.464-10.641,9.97-10.641S22.44,19.885,22.44,25.761ZM16,26.918a3.287,3.287,0,0,0-.561-.949,3.733,3.733,0,0,0-.792-.693,8.954,8.954,0,0,0-.907-.518c-.309-.152-.611-.295-.907-.432a5.791,5.791,0,0,1-.8-.436,2.077,2.077,0,0,1-.561-.532,1.2,1.2,0,0,1-.209-.708,1.476,1.476,0,0,1,.093-.52,1.094,1.094,0,0,1,.285-.421,1.355,1.355,0,0,1,.476-.274,2.013,2.013,0,0,1,.668-.1,3.01,3.01,0,0,1,.9.126,4.936,4.936,0,0,1,.721.284q.312.155.526.287a.71.71,0,0,0,.312.131.21.21,0,0,0,.155-.056.383.383,0,0,0,.088-.181,1.9,1.9,0,0,0,.044-.313c.009-.128.013-.284.013-.468,0-.164,0-.3-.009-.412a2.327,2.327,0,0,0-.03-.277.905.905,0,0,0-.053-.176.713.713,0,0,0-.121-.16,1.449,1.449,0,0,0-.365-.236,4.055,4.055,0,0,0-.631-.254,5.3,5.3,0,0,0-.765-.179c-.056-.009-.113-.006-.168-.014V17.868H12v1.572a4.854,4.854,0,0,0-.749.166,3.444,3.444,0,0,0-1.228.66,3.163,3.163,0,0,0-.827,1.11A4.141,4.141,0,0,0,9.1,24.246a3.271,3.271,0,0,0,.557.955,3.721,3.721,0,0,0,.778.692,7.91,7.91,0,0,0,.9.518c.308.152.608.295.9.432a5.857,5.857,0,0,1,.778.436,2.193,2.193,0,0,1,.557.532,1.206,1.206,0,0,1,.214.717,1.689,1.689,0,0,1-.124.658,1.3,1.3,0,0,1-.36.494,1.654,1.654,0,0,1-.573.309,2.485,2.485,0,0,1-.766.109,3.773,3.773,0,0,1-1.144-.157,5.049,5.049,0,0,1-.85-.348,5.538,5.538,0,0,1-.583-.347.719.719,0,0,0-.352-.157.247.247,0,0,0-.155.052.346.346,0,0,0-.107.176,1.561,1.561,0,0,0-.058.324c-.013.134-.019.3-.019.494a3.589,3.589,0,0,0,.048.67.719.719,0,0,0,.165.356,1.964,1.964,0,0,0,.377.283,3.775,3.775,0,0,0,.654.306,6.329,6.329,0,0,0,.9.249,5.635,5.635,0,0,0,1.108.1c.017,0,.033,0,.051,0v1.464h1.4V31.9c.067-.018.138-.027.2-.047a3.923,3.923,0,0,0,1.353-.736,3.486,3.486,0,0,0,.917-1.219,4.017,4.017,0,0,0,.336-1.7A3.518,3.518,0,0,0,16,26.918Zm5.119,6.444H39.531a1.523,1.523,0,0,1,0,3.04H17.744A11.631,11.631,0,0,0,21.118,33.362Z" transform="translate(-2.5 -6)" fill="#76706b"/>
</svg>
