<svg xmlns="http://www.w3.org/2000/svg" width="32" height="31.999" viewBox="0 0 32 31.999">
  <path id="settings" d="M30.391,12.68l-3.064-.614a12.1,12.1,0,0,0-.537-1.289l1.736-2.6a2,2,0,0,0-.25-2.523L26.352,3.726a2,2,0,0,0-2.523-.25l-2.6,1.735a12.09,12.09,0,0,0-1.291-.536L19.32,1.61A2,2,0,0,0,17.359,0h-2.72A2,2,0,0,0,12.678,1.61l-.614,3.065a12.092,12.092,0,0,0-1.289.536l-2.6-1.735a2,2,0,0,0-2.524.25L3.725,5.65a2,2,0,0,0-.25,2.523l1.735,2.6a11.989,11.989,0,0,0-.536,1.29l-3.066.613A2,2,0,0,0,0,14.641v2.72a2,2,0,0,0,1.608,1.961l3.065.615a12.092,12.092,0,0,0,.536,1.289l-1.734,2.6a2,2,0,0,0,.25,2.523l1.924,1.924a2,2,0,0,0,2.523.25l2.6-1.736a11.8,11.8,0,0,0,1.29.537l.613,3.064A2,2,0,0,0,14.64,32h2.72a2,2,0,0,0,1.961-1.609l.615-3.064a12.1,12.1,0,0,0,1.289-.537l2.6,1.736a2,2,0,0,0,2.523-.25l1.924-1.924a2,2,0,0,0,.25-2.523l-1.736-2.6a11.893,11.893,0,0,0,.537-1.291l3.064-.613A2,2,0,0,0,32,17.361v-2.72a2,2,0,0,0-1.609-1.961Zm-3.457,5.3a2,2,0,0,0-1.5,1.305,10.154,10.154,0,0,1-.447,1.074,2,2,0,0,0,.135,1.982l1.736,2.6-1.924,1.924-2.6-1.736a2,2,0,0,0-1.98-.137,10.112,10.112,0,0,1-1.076.449,2,2,0,0,0-1.3,1.5L17.36,30H14.64l-.613-3.066a2,2,0,0,0-1.3-1.5,10.171,10.171,0,0,1-1.075-.447,2,2,0,0,0-1.981.135l-2.6,1.736L5.139,24.94l1.735-2.6a2,2,0,0,0,.137-1.98,10.106,10.106,0,0,1-.448-1.076,2,2,0,0,0-1.5-1.3L2,17.362l0-2.721,3.066-.613a2,2,0,0,0,1.5-1.3,9.964,9.964,0,0,1,.447-1.075,2,2,0,0,0-.136-1.981l-1.734-2.6L7.062,5.14l2.6,1.735a2,2,0,0,0,1.98.137,10.09,10.09,0,0,1,1.075-.448,2,2,0,0,0,1.3-1.5L14.639,2h2.72l.613,3.066a2,2,0,0,0,1.305,1.5,9.948,9.948,0,0,1,1.074.447,2,2,0,0,0,1.982-.136l2.6-1.735,1.924,1.924-1.736,2.6a2.006,2.006,0,0,0-.137,1.98,10.1,10.1,0,0,1,.449,1.075,2,2,0,0,0,1.5,1.3L30,14.641l0,2.72ZM16,9a7,7,0,1,0,7,7,7,7,0,0,0-7-7Zm0,13.126A6.125,6.125,0,1,1,22.125,16,6.127,6.127,0,0,1,16,22.127ZM16,12a4,4,0,1,0,4,4,4,4,0,0,0-4-4Zm0,7a3,3,0,1,1,3-3A3,3,0,0,1,16,19Z" transform="translate(0 -0.002)" fill="#7a8fa6"/>
</svg>
